<?xml version="1.0" encoding="utf-8"?>
<!-- Generator: Adobe Illustrator 24.1.0, SVG Export Plug-In . SVG Version: 6.00 Build 0)  -->
<svg version="1.1" id="Layer_1" xmlns="http://www.w3.org/2000/svg" xmlns:xlink="http://www.w3.org/1999/xlink" x="0px" y="0px"
	 viewBox="0 0 89.7 49.4" style="enable-background:new 0 0 89.7 49.4;" xml:space="preserve">
<style type="text/css">
	.st0{fill:#FFFFFF;}
</style>
<path class="st0" d="M2.4,45.6c0-0.5-0.2-0.9-0.8-0.9c-0.4-0.1-0.8,0.2-0.8,0.6c0,0.1,0,0.1,0,0.2c0,1.4,2.4,0.6,2.4,2.4
	c0,0.8-0.6,1.4-1.4,1.5c-0.1,0-0.2,0-0.2,0c-1.2,0-1.6-0.6-1.6-1.6h0.6c0,0.6,0,1.1,1,1.1c0.5,0,0.9-0.3,0.9-0.8c0,0,0,0,0-0.1
	c0-1.4-2.4-0.6-2.4-2.4c0-0.7,0.5-1.3,1.3-1.4c0.1,0,0.2,0,0.2,0c1,0,1.4,0.5,1.4,1.4L2.4,45.6z"/>
<rect x="5.3" y="44.4" class="st0" width="0.6" height="4.9"/>
<path class="st0" d="M10.4,45.6c0-0.5-0.2-0.9-0.8-0.9c-0.4-0.1-0.8,0.2-0.8,0.6c0,0.1,0,0.1,0,0.2c0,1.4,2.4,0.6,2.4,2.4
	c0,0.8-0.6,1.4-1.4,1.5c-0.1,0-0.2,0-0.2,0c-1.2,0-1.6-0.6-1.6-1.6h0.6c0,0.6,0,1.1,1,1.1c0.5,0,0.9-0.3,0.9-0.8c0,0,0,0,0-0.1
	c0-1.4-2.4-0.6-2.4-2.4c0-0.5,0.2-1.4,1.5-1.4c1,0,1.4,0.5,1.4,1.4L10.4,45.6z"/>
<path class="st0" d="M12.9,44.4v0.5h1.3v4.4h0.6v-4.4h1.3v-0.5H12.9z"/>
<path class="st0" d="M18,44.4v4.9h2.8v-0.5h-2.1V47h1.9v-0.5h-1.9v-1.5h2v-0.5L18,44.4z"/>
<path class="st0" d="M26,44.4l-1,3.9h0l-1-3.9h-1.1v4.9h0.6V45h0l1.1,4.3h0.6l1.1-4.3h0v4.3h0.6v-4.9H26z"/>
<path class="st0" d="M30.8,45L30.8,45l0.7,2.4H30L30.8,45z M30.4,44.4l-1.5,4.9h0.7l0.4-1.3h1.6l0.4,1.3h0.7l-1.4-4.9H30.4z"/>
<path class="st0" d="M37.6,44.4v4.9h0.6V47h1.9v-0.5h-1.9v-1.5h2v-0.5L37.6,44.4z"/>
<path class="st0" d="M43.3,45L43.3,45l0.7,2.4h-1.4L43.3,45z M42.9,44.4l-1.5,4.9H42l0.4-1.3h1.6l0.4,1.3h0.7l-1.4-4.9H42.9z"/>
<path class="st0" d="M47.5,46.6h0.6c0.4,0,1.1,0,1.1-0.9c0-0.5-0.3-0.8-0.9-0.8h-0.8L47.5,46.6z M46.9,44.4h1.7
	c0.6-0.1,1.2,0.4,1.3,1c0,0.1,0,0.1,0,0.2c0.1,0.6-0.3,1.1-0.8,1.2v0c0.4,0,0.7,0.4,0.7,0.8l0,0.8c0,0.5,0.1,0.7,0.3,0.8h-0.8
	c-0.1-0.2-0.2-0.5-0.2-0.7l0-0.8c-0.1-0.7-0.4-0.7-0.8-0.7h-0.9v2.2h-0.6L46.9,44.4z"/>
<rect x="52.1" y="44.4" class="st0" width="0.6" height="4.9"/>
<path class="st0" d="M56.4,45L56.4,45l0.7,2.4h-1.4L56.4,45z M56,44.4l-1.5,4.9h0.7l0.4-1.3h1.6l0.4,1.3h0.7l-1.4-4.9H56z"/>
<path class="st0" d="M62.3,45.6c0-0.5-0.2-0.9-0.8-0.9c-0.4-0.1-0.8,0.2-0.8,0.6c0,0.1,0,0.1,0,0.2c0,1.4,2.4,0.6,2.4,2.4
	c0,0.8-0.6,1.4-1.4,1.5c-0.1,0-0.2,0-0.2,0c-1.2,0-1.6-0.6-1.6-1.6h0.6c0,0.6,0,1.1,1,1.1c0.5,0,0.9-0.3,0.9-0.8c0,0,0,0,0-0.1
	c0-1.4-2.4-0.6-2.4-2.4c0-0.5,0.2-1.4,1.5-1.4c1,0,1.4,0.5,1.4,1.4L62.3,45.6z"/>
<path class="st0" d="M68.9,48.8h0.9c0.5,0,0.9-0.3,0.9-0.7c0-0.1,0-0.1,0-0.2c0-0.5-0.3-0.9-0.8-0.9c-0.1,0-0.1,0-0.2,0h-0.8
	L68.9,48.8z M68.9,46.5h0.7c0.4,0.1,0.8-0.2,0.9-0.7c0-0.1,0-0.1,0-0.2c0-0.5-0.3-0.8-0.9-0.8h-0.7L68.9,46.5z M68.3,44.3h1.6
	c0.6-0.1,1.2,0.4,1.3,1c0,0.1,0,0.2,0,0.2c0,0.5-0.3,0.9-0.7,1v0c0.6,0.1,1,0.6,0.9,1.2c0,1-0.6,1.4-1.7,1.4h-1.4L68.3,44.3z"/>
<path class="st0" d="M74.1,46.6h0.6c0.4,0,1.1,0,1.1-0.9c0-0.5-0.3-0.8-0.9-0.8h-0.8L74.1,46.6z M73.5,44.4h1.7
	c0.6-0.1,1.2,0.4,1.3,1c0,0.1,0,0.1,0,0.2c0.1,0.6-0.3,1.1-0.8,1.2v0c0.4,0,0.7,0.4,0.7,0.8l0,0.8c0,0.5,0.1,0.7,0.3,0.8H76
	c-0.1-0.2-0.2-0.5-0.2-0.7l0-0.8c-0.1-0.7-0.4-0.7-0.8-0.7h-0.9v2.2h-0.6V44.4z"/>
<rect x="78.7" y="44.4" class="st0" width="0.6" height="4.9"/>
<path class="st0" d="M81.3,44.4v0.5h1.3v4.4h0.6v-4.4h1.3v-0.5H81.3z"/>
<path class="st0" d="M87,46.8c0,1.1,0.1,2.1,1,2.1s1-0.9,1-2.1s-0.1-2.1-1-2.1S87,45.7,87,46.8 M89.7,46.8c0,1.2-0.2,2.6-1.7,2.6
	s-1.7-1.3-1.7-2.6s0.2-2.5,1.7-2.5S89.7,45.6,89.7,46.8"/>
<path class="st0" d="M34.6,31.6c0,3.6-2.4,6.9-10,7c-1.5,0-3.2,0-5.1,0H0V28.2h14.9c3.7,0.1,3.7-1.9,2.9-2.9
	c-0.1-0.2-6-8.2-8.3-11.3h13.8c1.6,1.9,8.2,11.2,8.2,11.2S34.6,29.4,34.6,31.6"/>
<path class="st0" d="M24.6,10.9c0.4,0,0.7,0,1.1,0h8.9V0H15.5C8.2,0,4.2,5.4,7.4,10.9H24.6z"/>
<path class="st0" d="M61.3,14.1H37.8v24.6h11.1V24.5h12.7V14.1H61.3z M77.1,11.2L77.1,11.2l0.2,0.2l0.1,0.1l0.1,0.1l0.1,0.1l0,0.1
	l0,0.1l0,0.1l0,0.1l0,0.1v0.1l0,0.1l0,0.1l0,0.1l0,0.1l0,0.1l-0.1,0.1l-0.1,0.1l-0.1,0.1l-0.1,0.1l-0.1,0.1L77,13.8l-0.1,0.1
	L76.8,14L76.6,14l-0.1,0H64.8v10.5h11.7l0.1,0l0.1,0.1l0.1,0.1l0.1,0.1l0.1,0.1l0.1,0.1l0.1,0.1l0.1,0.1l0.1,0.1l0.1,0.1l0.1,0.1
	l0,0.1l0,0.1l0,0.1l0,0.1l0,0.2v0.1l0,0.2l0,0.1l0,0.2l0,0.1l-0.1,0.1l-0.1,0.1l-0.1,0.1l-0.1,0.1l-0.1,0.1l-0.1,0.1l-0.1,0.1
	l-0.1,0.1L76.8,28l-0.1,0.1l-0.1,0.1H52.5v10.5h24.3c1.3,0,2.5-0.1,3.8-0.5l0.8-0.3l0.8-0.3l0.8-0.3l0.7-0.4l0.7-0.4L85,36l0.6-0.5
	l0.6-0.5l0.5-0.5l0.5-0.5l0.4-0.6l0.4-0.6l0.4-0.6l0.3-0.6l0.2-0.7l0.2-0.7l0.2-0.7l0.1-0.7l0.1-0.7l0-0.7l-0.1-0.7l-0.1-0.8
	l-0.2-0.8l-0.2-0.8l-0.3-0.8l-0.4-0.8l-0.4-0.8l-0.5-0.8l-0.6-0.8l-0.6-0.8l0.6-0.7l0.5-0.7l0.5-0.7l0.4-0.7l0.4-0.7l0.3-0.7
	l0.3-0.7l0.2-0.8l0.2-0.7l0.1-0.7l0.1-0.7l0-0.7l0-0.7l-0.1-0.7l-0.1-0.7l-0.2-0.7l-0.2-0.7l-0.3-0.7l-0.3-0.6l-0.4-0.6l-0.4-0.6
	l-0.4-0.6l-0.5-0.5l-0.6-0.5l-0.6-0.5c-2-1.3-4.2-2.1-6.6-2.3c-0.8-0.1-1.6-0.2-2.5-0.1H64.8v10.7h11.6C76.7,10.9,76.9,11,77.1,11.2
	 M61.3,0H37.8v10.9h23.8V0L61.3,0z"/>
</svg>
