<svg xmlns="http://www.w3.org/2000/svg" xmlns:xlink="http://www.w3.org/1999/xlink" viewBox="0 0 326.96 326.96"><defs><style>.cls-1{fill:none;}.cls-2{opacity:0.2;}.cls-3{clip-path:url(#clip-path);}.cls-4{fill:#fffded;}.cls-5{opacity:0.5;}.cls-6{clip-path:url(#clip-path-2);}.cls-7{fill:#fff;}</style><clipPath id="clip-path" transform="translate(0 0)"><rect class="cls-1" width="326.97" height="326.96"/></clipPath><clipPath id="clip-path-2" transform="translate(0 0)"><rect class="cls-1" x="47.98" y="47.97" width="231.02" height="231.02"/></clipPath></defs><g id="Layer_2" data-name="Layer 2"><g id="Layer_1-2" data-name="Layer 1"><g class="cls-2"><g class="cls-3"><path class="cls-4" d="M327,163.48A163.49,163.49,0,1,1,163.49,0,163.48,163.48,0,0,1,327,163.48" transform="translate(0 0)"/></g></g><g class="cls-5"><g class="cls-6"><path class="cls-4" d="M279,163.48A115.51,115.51,0,1,1,163.49,48,115.52,115.52,0,0,1,279,163.48" transform="translate(0 0)"/></g></g><path class="cls-7" d="M209.25,161.58a45.8,45.8,0,1,1-47.66-43.87,45.79,45.79,0,0,1,47.66,43.87" transform="translate(0 0)"/></g></g></svg>